<svg xmlns="http://www.w3.org/2000/svg" xmlns:xlink="http://www.w3.org/1999/xlink" width="4602.519" height="3781.599" viewBox="0 0 4602.519 3781.599">
  <defs>
    <clipPath id="clip-path">
      <path id="Path_493" data-name="Path 493" d="M2251.271,694h0c468.718,0,848.689,379.972,848.689,848.691l0,2125.879H1402.58V1542.691c0-468.719,379.972-848.691,848.69-848.691Z" transform="translate(-1402.58 -694)" fill="none"/>
    </clipPath>
  </defs>
  <g id="Group_337" data-name="Group 337" transform="translate(-882.877 -222.102)">
    <g id="Group_322" data-name="Group 322" transform="translate(2176.771 1029.127)">
      <path id="Path_481" data-name="Path 481" d="M2251.271,694.891h0c468.718,0,848.689,379.971,848.689,848.69l0,2125.652H1402.58V1543.581c0-468.719,379.972-848.691,848.69-848.691Z" transform="translate(-1402.58 -694.89)" fill="#282b4a"/>
      <g id="Group_320" data-name="Group 320" transform="translate(0.001 0.005)" clip-path="url(#clip-path)">
        <path id="Path_486" data-name="Path 486" d="M2039.332,703.7c95.657,279.888,79.361,588.712,19.862,874.422-55.707,267.653-142.473,533.636-264.493,778.538q-45.5,91.369-97.736,179.128c-33.179,55.842-73.221,108.7-103.017,166.443-36.114,69.926-54.984,160.8-9.84,231.358,47.9,74.893,143.69,89.473,225.715,79.227,65.819-8.216,129.922-30.653,192.4-52.051s123.329-45.142,183.235-72.228c203.145-91.19,384.258-218.041,545.014-371.437,17.831-16.975,35.165-34.309,52.275-52.051a6.384,6.384,0,0,0-9.029-9.029c-155.473,142.065-318.891,271.806-506.866,368.819a2094.951,2094.951,0,0,1-368.006,146.038c-88.39,26.138-210.773,47.084-281.828-29.389-60.177-64.78-39.772-163.507-2.167-234.067,30.245-56.744,69.248-109.291,101.933-164.728q49.927-84.642,93.76-172.672c116.108-233.343,198.992-484.61,255.962-738.676,60.311-269.188,87.758-559.774,12.685-828.782q-14.221-51.057-31.6-101.166c-1.76-4.966-9.705-2.844-7.944,2.212Z" transform="translate(-857.665 -677.923)" fill="#e4e5f2"/>
        <path id="Path_487" data-name="Path 487" d="M2018.113,758.913c8.488,252.8,3.927,508.221-40.9,757.637-35.8,199.261-102.655,390.172-190.278,572.324-28.305,58.686-58.957,116.334-87.037,175.245-15.935,33.452-36.114,71.372-37.694,109.337s29.479,58.1,65.865,56.656c81.888-3.342,161.567-65.458,220.117-117.373,95.568-84.418,171.543-194.115,240.927-300.111,74.217-113.446,144.053-231.268,207.659-350.9a6.879,6.879,0,1,0-11.872-6.952c-64.15,96.29-119.721,198.631-181.387,296.32-62.253,98.863-129.334,195.289-206.936,282.822-61.71,69.655-139.943,138.769-229.957,168.743-32.369,10.79-88.978,16.93-86.224-31.239,2.121-37.514,23.294-75.433,39.365-108.343,28.078-57.784,58.189-114.574,85.771-172.538,81.981-170.821,145.992-349.452,182.423-535.713,51.283-261.829,51.191-530.386,37.92-796.053-.27-5.146-8.216-5.192-8.081,0Z" transform="translate(-490.381 -479.974)" fill="#e4e5f2"/>
        <path id="Path_488" data-name="Path 488" d="M1866.557,697.457c121.571,61.079,213.392,183.326,260.385,309.14,36.837,98.457,41.668,200.751,35.843,304.535-9.841,176.87-60.9,345.886-133.125,507-60.808,135.429-135.835,263.59-210.143,392.113q-87.532,151.275-175.561,302.458c-97.464,167.03-234.745,349.181-188.608,553.409a323.3,323.3,0,0,0,77.331,149.56c45.956,48.934,105.589,66.946,167.345,87.8,129.244,43.7,234.744,157.278,216.685,301.554a235.523,235.523,0,0,1-33.541,95.479c-4.513,7,6.14,12.6,10.791,6.321,77.329-104.19,47.173-248.558-40.629-336.136-44.737-44.6-99.316-71.778-159.219-90.286-36.115-11.24-73.087-21.443-105.41-41.847a241.274,241.274,0,0,1-70.513-69.2c-84.057-124.5-59.228-282.416,3.386-410.17,33.766-68.934,76.428-134.3,115.158-200.527q84.373-144.456,168.114-289.321c76.337-132,154.977-262.958,220.072-401.051,78.64-167.029,138.41-343.088,152.4-528.175,7.042-93.175,7.809-187.208-15.892-278.352-31.6-121.887-103.83-243.005-203.415-321.464a421.279,421.279,0,0,0-85.772-52.186c-6.319-2.934-11.962,6.275-5.552,9.48Z" transform="translate(-1249.495 -716.689)" fill="#e4e5f2"/>
        <path id="Path_489" data-name="Path 489" d="M1840.388,718.684c193.215,206.395,175.2,532.959,137.462,792.171-38.914,267.2-133.035,521.132-293.429,739.443a1985.514,1985.514,0,0,1-142.608,171.183c-49.342,53.27-102.972,102.16-153.081,154.571-7.222,7.628,3.386,17.425,11.24,11.24,103.379-81.257,194.7-185.087,274.877-288.916a1555.743,1555.743,0,0,0,205.22-348.46c54.984-130.914,91.642-269.143,113.535-409.357,22.165-141.931,33.9-289.278,19.5-432.561-14.625-145.767-64.6-287.652-167.028-394.822-3.475-3.657-9.029,1.851-5.553,5.507Z" transform="translate(-1459.697 -630.835)" fill="#e4e5f2"/>
        <path id="Path_490" data-name="Path 490" d="M1587.465,777.3c63.2,163.69,56.338,344.262,12.5,511.878a1494.571,1494.571,0,0,1-94.123,253.614c-37.559,80.309-81.709,157.188-120.532,236.82a6.591,6.591,0,0,0,11.331,6.636,1881.13,1881.13,0,0,0,187.436-381.369c46.9-130.915,73.852-270.182,65-409.719a723.546,723.546,0,0,0-48.979-221.2c-3.071-7.719-15.711-4.514-12.642,3.476Z" transform="translate(-1465.488 -428.52)" fill="#e4e5f2"/>
        <path id="Path_491" data-name="Path 491" d="M2399.712,1200.29c-145.541,56.655-281.242,147.754-401.187,246.843-115.387,95.342-222.737,205.129-298.577,335.052-41.983,71.869-76.292,151.456-88.932,234.157a4.983,4.983,0,0,0,9.616,2.619c21.308-69.837,47.085-136.92,82.973-200.707a1090.306,1090.306,0,0,1,128.523-179.987c99.765-114.707,218.9-213.615,345.569-297.175,72.951-48.123,149.786-88.707,226.438-130.373,5.553-3.024,1.715-12.821-4.514-10.429Z" transform="translate(-670.686 1083.951)" fill="#e4e5f2"/>
        <path id="Path_492" data-name="Path 492" d="M1400.765,1316.294a843.752,843.752,0,0,1,143.015,12.686c40.222,6.771,83.243,13.9,120.668,30.787,33.766,15.213,47.308,38.012,53.54,72.817a851.8,851.8,0,0,1,9.615,90.827,6.772,6.772,0,1,0,13.544,0c4.514-62.207,8.62-141.207-53.5-176.057-38.552-21.76-86.81-29.615-129.876-36.656a767.386,767.386,0,0,0-157.007-7.358,6.591,6.591,0,0,0,0,13.137Z" transform="translate(-1430.198 1443.213)" fill="#e4e5f2"/>
      </g>
    </g>
    <rect id="Rectangle_350" data-name="Rectangle 350" width="1987.017" height="843.317" transform="translate(3065.523 455.123)" fill="#282b4a"/>
    <path id="Path_326" data-name="Path 326" d="M3000.017,229.612V1054.4H1031.532V229.612H3000.017m18.531-18.532H1013v861.849H3018.548Z" transform="translate(2043.257 234.777)" fill="#f2f2f9"/>
    <path id="Path_327" data-name="Path 327" d="M1718.949,577.961H1318.759c33.465-52.075,110.453-88.531,200.1-88.531S1685.511,525.885,1718.949,577.961Z" transform="translate(2545.768 688.186)" fill="#f2b836"/>
    <ellipse id="Ellipse_18" data-name="Ellipse 18" cx="243.274" cy="243.274" rx="243.274" ry="243.274" transform="translate(3451.695 702.157)" fill="#f2b836"/>
    <ellipse id="Ellipse_19" data-name="Ellipse 19" cx="80.933" cy="80.932" rx="80.933" ry="80.932" transform="translate(3395.192 561.548)" fill="#f4f4f4"/>
    <path id="Path_328" data-name="Path 328" d="M1603.843,378.62l-196.784,182.3s-286.931,104.441-338.027,138.249S900.76,777.3,900.76,789.318s109.684-15.011,107.434-11.252-99.941,117.2-87.922,117.2,122.471-64.624,122.471-64.624-81.886,82.653-68.358,90.172S1093.1,843.432,1093.1,843.432s-57.873,70.793-43.974,77.835,120.591-114.661,120.591-114.661,274.25-78.894,340.357-106.692,179.31-138.488,179.31-138.488" transform="translate(1856.221 506.708)" fill="#f4f4f4"/>
    <path id="Path_329" data-name="Path 329" d="M1249.595,368.22,1124.9,492.385s123.688,192.76,130.228,190.113,116.964-86.465,116.964-86.465" transform="translate(2225.795 489.999)" fill="#f2b836"/>
    <path id="Path_330" data-name="Path 330" d="M1122.311,659.378H920.84L1021.575,482.74Z" transform="translate(1886.533 672.976)" fill="#f2b836" stroke="#fff" stroke-width="4"/>
    <path id="Path_331" data-name="Path 331" d="M3443.1,149.27H1437.551L1013.96,317.091H3019.508Z" transform="translate(2042.295 128.765)" fill="#f2b836"/>
    <path id="Path_332" data-name="Path 332" d="M1367.567,647.865l142.566-219.526S1207.9,232.719,1203.85,205.371s4.871-61.077,15.461-67.06,121.782-39.712,196.731,44h-37.885s333.182,109.339,355.182,222.941-222.385,438.231-222.385,438.231" transform="translate(2354.598 95.538)" fill="#f4f4f4"/>
    <path id="Path_333" data-name="Path 333" d="M1253.41,393.459s89.881-123.556,94.778-120.3S1550.4,437.91,1550.4,437.91L1422.5,617.141" transform="translate(2437.867 336.945)" fill="#f2b836"/>
    <line id="Line_51" data-name="Line 51" y1="44.001" x2="95.202" transform="translate(3350.611 669.458)" fill="none" stroke="#090928" stroke-miterlimit="10" stroke-width="3"/>
    <path id="Path_334" data-name="Path 334" d="M1198.212,351.43s-39.049,55.6-35.9,136.131" transform="translate(2287.114 465.996)" fill="none" stroke="#090928" stroke-miterlimit="10" stroke-width="3"/>
    <path id="Path_335" data-name="Path 335" d="M1177.8,388.452l96.976,131.234L1264.186,317.13S1203.426,346.57,1177.8,388.452Z" transform="translate(2312.997 409.488)" fill="#f4f4f4"/>
    <ellipse id="Ellipse_20" data-name="Ellipse 20" cx="11.596" cy="11.596" rx="11.596" ry="11.596" transform="translate(3445.335 611.374)" fill="#090928"/>
    <ellipse id="Ellipse_21" data-name="Ellipse 21" cx="11.596" cy="11.596" rx="11.596" ry="11.596" transform="translate(3404.685 625.594)" fill="#090928"/>
    <line id="Line_52" data-name="Line 52" x1="52.578" y2="24.33" transform="translate(3354.752 687.224)" fill="none" stroke="#f4f4f4" stroke-miterlimit="10" stroke-width="3"/>
    <g id="Group_323" data-name="Group 323" transform="translate(2514.962 1763.14)">
      <rect id="Rectangle_351" data-name="Rectangle 351" width="2365.078" height="1003.773" transform="translate(11.028 684.72)" fill="#fff"/>
      <path id="Path_336" data-name="Path 336" d="M3225.435,911.288V1893H882.447V911.288H3225.435m22.059-22.058H860.39V1915.059h2387.1Z" transform="translate(-860.387 -215.54)" fill="#f2f2f9"/>
      <ellipse id="Ellipse_22" data-name="Ellipse 22" cx="289.561" cy="289.561" rx="289.561" ry="289.561" transform="translate(1259.457 563.776)" fill="#282b4a"/>
      <ellipse id="Ellipse_23" data-name="Ellipse 23" cx="99.608" cy="99.608" rx="99.608" ry="99.608" transform="translate(1530.112 275.383)" fill="#f4f4f4"/>
      <path id="Path_337" data-name="Path 337" d="M1773.935,1440.047c-14.212,1.292-377.855-57-435.648-135.09-52.245-70.554-152.39-403.507-152.39-403.507s-150.468-124.282-135.91-135.28c12.919-9.768,93.872,18.277,93.872,18.277s-94.535-42.982-84.671-62.393,224.3,61.416,224.3,61.416,2.583-65.292,24.231-70.46,42.352,88.8,41.69,119.177,173.819,310.264,173.819,310.264l379.274,85.995" transform="translate(-454.665 -595.06)" fill="#f4f4f4"/>
      <path id="Path_495" data-name="Path 495" d="M112.465,0A112.465,112.465,0,1,1,0,112.465,112.465,112.465,0,0,1,112.465,0Z" transform="translate(636.221)" fill="#243f69" stroke="#fff8f8" stroke-width="4"/>
      <path id="Path_338" data-name="Path 338" d="M1543.731,900.768l-254.047-47.3-60.124,282.439,210.4,56.942" transform="translate(-69.268 -297.445)" fill="#282b4a"/>
      <path id="Path_339" data-name="Path 339" d="M3752.672,954.81H1365.536L861.35,1778.966H3248.487Z" transform="translate(-861.35 -79.446)" fill="#282b4a"/>
      <path id="Path_340" data-name="Path 340" d="M1521.92,996.92h104.713s-63.969,119.271-46.512,127.023,136.7-127.023,136.7-127.023S1602.4,1147.2,1626.633,1155.929s159.039-141.551,159.039-141.551-86.311,93.085-64,106.667,141.549-110.544,130.9-135.752-67.877-52.373-172.591-52.373S1521.92,996.92,1521.92,996.92Z" transform="translate(562.676 -121.556)" fill="#f4f4f4"/>
      <line id="Line_53" data-name="Line 53" x2="105.091" y2="74.966" transform="translate(1470.117 271)" fill="none" stroke="#090928" stroke-miterlimit="10" stroke-width="3"/>
      <path id="Path_341" data-name="Path 341" d="M1362.581,855.1l-32.961,169.691L1521.4,881.723S1457.589,846.367,1362.581,855.1Z" transform="translate(149.006 -291.949)" fill="#f4f4f4"/>
      <path id="Path_342" data-name="Path 342" d="M1510.111,851.216s-143.568-7.752-231.611,115.773" transform="translate(39.039 -297.523)" fill="none" stroke="#fff" stroke-miterlimit="10" stroke-width="3"/>
      <ellipse id="Ellipse_25" data-name="Ellipse 25" cx="14.275" cy="14.275" rx="14.275" ry="14.275" transform="translate(1619.922 322.773)" fill="#090928"/>
      <ellipse id="Ellipse_26" data-name="Ellipse 26" cx="14.275" cy="14.275" rx="14.275" ry="14.275" transform="translate(1572.593 287.07)" fill="#090928"/>
      <line id="Line_54" data-name="Line 54" x1="71.165" y1="50.874" transform="translate(1470.075 271.557)" fill="none" stroke="#f4f4f4" stroke-miterlimit="10" stroke-width="3"/>
      <line id="Line_55" data-name="Line 55" x2="785.366" transform="translate(1210.047 870.448)" fill="none" stroke="#090928" stroke-miterlimit="10" stroke-width="3"/>
    </g>
    <rect id="Rectangle_352" data-name="Rectangle 352" width="808.363" height="1904.655" transform="translate(1191.063 611.258)" fill="#282b4a"/>
    <path id="Path_343" data-name="Path 343" d="M1085.838,258.154V2145.045H295.214V258.154h790.624M1103.6,240.39H277.45V2162.809H1103.6Z" transform="translate(895.736 361.984)" fill="#f2f2f9"/>
    <ellipse id="Ellipse_27" data-name="Ellipse 27" cx="233.19" cy="233.19" rx="233.19" ry="233.19" transform="translate(1618.915 1272.564)" fill="#f62948"/>
    <circle id="Ellipse_28" data-name="Ellipse 28" cx="79.177" cy="79.177" r="79.177" transform="translate(1947.399 1111.519)" fill="#f4f4f4"/>
    <rect id="Rectangle_353" data-name="Rectangle 353" width="160.993" height="160.993" transform="translate(2511.937 1630.313)" fill="#f72948" stroke="#fff" stroke-width="4"/>
    <path id="Path_344" data-name="Path 344" d="M709.147,583.71,893.563,805.227l186.344-52.835s53.114-48.927,71.843-46.846,88.49,42.684,88.49,42.684h-72.858v79.126s67.656-39.563,81.207-30.2-44.79,89.48-82.2,106.127S918.61,1006.747,848.874,992.1,568.33,728.385,568.33,728.385" transform="translate(1344.123 882.557)" fill="#f4f4f4"/>
    <path id="Path_345" data-name="Path 345" d="M560.98,784.4,699.107,931.387,879.539,774.048,686.039,556.77" transform="translate(1330.269 837.618)" fill="#f62948"/>
    <path id="Path_346" data-name="Path 346" d="M176.63,2570.423V648.029L434.944,241.97V2164.389Z" transform="translate(738.265 360.404)" fill="#f62948"/>
    <path id="Path_347" data-name="Path 347" d="M928.522,763.025l-314.4-38.8s-277.981,181.192-315.463,188.5S163.3,874.38,165.381,799.544c0,0-14.566-56.592,29.158-103.134v61.134h70.8S456.914,538.615,535,519.786,997.243,561.3,997.243,561.3" transform="translate(719.825 779.693)" fill="#f4f4f4"/>
    <path id="Path_348" data-name="Path 348" d="M575.828,797.156,403.01,774.037,464.423,515.52l225.933,31.925" transform="translate(1086.372 774.961)" fill="#f62948"/>
    <path id="Path_349" data-name="Path 349" d="M832.875,1251.419,584.077,923.8l-97.4,179.34Z" transform="translate(1215.838 1396.754)" fill="#bf3c3c"/>
    <path id="Path_350" data-name="Path 350" d="M1022.474,1385.621l-246.767-87.45,109.325-296.735-185.837,39.056L603.98,1370.952H308.92c16.7-108.792,74.913-468.995,181.015-563.144,124.932-110.9,615.37-98.971,677.772,17.18C1234.855,949.921,1022.474,1385.621,1022.474,1385.621Z" transform="translate(944.128 1105.964)" fill="#f62948"/>
    <line id="Line_56" data-name="Line 56" x2="102.6" transform="translate(2068.447 1190.487)" fill="none" stroke="#090928" stroke-miterlimit="10" stroke-width="3"/>
    <line id="Line_57" data-name="Line 57" x2="113.385" y2="14.313" transform="translate(1587.872 1567.326)" fill="none" stroke="#090928" stroke-miterlimit="10" stroke-width="3"/>
    <path id="Path_351" data-name="Path 351" d="M621.77,549.89s55.626,69.685,28.3,181.573" transform="translate(1426.267 831.488)" fill="none" stroke="#090928" stroke-miterlimit="10" stroke-width="3"/>
    <line id="Line_58" data-name="Line 58" x1="230.704" y1="78.694" transform="translate(1767.904 2321.365)" fill="none" stroke="#090928" stroke-miterlimit="10" stroke-width="3"/>
    <ellipse id="Ellipse_29" data-name="Ellipse 29" cx="11.344" cy="11.344" rx="11.344" ry="11.344" transform="translate(2076.275 1154.761)" fill="#090928"/>
    <ellipse id="Ellipse_30" data-name="Ellipse 30" cx="11.344" cy="11.344" rx="11.344" ry="11.344" transform="translate(2029.334 1160.465)" fill="#090928"/>
    <line id="Line_59" data-name="Line 59" x1="55.525" transform="translate(2106.536 1190.487)" fill="none" stroke="#f4f4f4" stroke-miterlimit="10" stroke-width="3"/>
    <path id="Path_352" data-name="Path 352" d="M563.436,508.88S561.3,619.3,618.555,649.14s89.15-42.989,89.15-42.989S668.929,532.2,563.436,508.88Z" transform="translate(1336.438 769.054)" fill="#f4f4f4"/>
  </g>
</svg>
