<svg xmlns="http://www.w3.org/2000/svg" xmlns:xlink="http://www.w3.org/1999/xlink" width="2084.877" height="2124.773" viewBox="0 0 2084.877 2124.773">
  <defs>
    <clipPath id="clip-path">
      <path id="Path_389" data-name="Path 389" d="M1224.29,1384.028c-259.673-36.963-440.223-277.459-403.26-537.15s277.458-440.224,537.132-403.261Z" transform="translate(-816.23 -438.817)" fill="none"/>
    </clipPath>
  </defs>
  <g id="Group_343" data-name="Group 343" transform="translate(0.25 0.725)">
    <g id="Group_318" data-name="Group 318" transform="translate(526.894 498.412)">
      <path id="Path_375" data-name="Path 375" d="M459.09,1172.925,568.02,952.85l69.918,82.233Z" transform="translate(557.503 1.068)" fill="#f4f4f4"/>
      <line id="Line_75" data-name="Line 75" x2="48.619" y2="147.559" transform="translate(1352.629 549.831)" fill="none" stroke="#80818e" stroke-miterlimit="10" stroke-width="3"/>
      <line id="Line_76" data-name="Line 76" x1="122.911" y2="103.039" transform="translate(1018.86 934.211)" fill="none" stroke="#80818e" stroke-miterlimit="10" stroke-width="3"/>
      <ellipse id="Ellipse_34" data-name="Ellipse 34" cx="51.345" cy="51.345" rx="51.345" ry="51.345" transform="translate(620.412 0)" fill="#f4f4f4"/>
      <path id="Path_373" data-name="Path 373" d="M1224.29,1384.028c-259.673-36.963-440.223-277.459-403.26-537.15s277.458-440.224,537.132-403.261Z" transform="translate(-816.23 -423.87)" fill="#f72948"/>
      <line id="Line_74" data-name="Line 74" x1="54.657" y2="7.868" transform="translate(578.801 57.058)" fill="none" stroke="#090928" stroke-miterlimit="10" stroke-width="3"/>
      <ellipse id="Ellipse_35" data-name="Ellipse 35" cx="5.673" cy="9.954" rx="5.673" ry="9.954" transform="translate(637.631 26.443)" fill="#090928"/>
      <ellipse id="Ellipse_36" data-name="Ellipse 36" cx="5.673" cy="9.954" rx="5.673" ry="9.954" transform="translate(615.38 27.137)" fill="#090928"/>
      <path id="Path_374" data-name="Path 374" d="M451.88,944.041,261.1,789.456,356.654,739.3Z" transform="translate(1105.853 -176.146)" fill="#f4f4f4"/>
      <path id="Path_376" data-name="Path 376" d="M499.954,822.889s67.7,197.623,154.969,230.688c84.941,32.205,357.222-75.024,357.222-75.024L954.176,800.29l-189,58.024s-81.08-140.239-115.28-181.832a136.5,136.5,0,0,0-78.683-46.533L421.454,701.314s-119.031,260.7-105.088,359.473,263.077,300.094,263.077,300.094L727.66,1230.962,532.233,1040.9,610.55,844.353Z" transform="translate(446.537 -265.259)" fill="#090928"/>
      <path id="Path_377" data-name="Path 377" d="M947.631,701.258l-225.51,21.775,9.314-65.216S676.76,640.087,680.383,629.2c3.66-11.272,63.807-6,63.807-6l284.468-33.047Z" transform="translate(-237.83 -298.287)" fill="#f4f4f4"/>
      <ellipse id="Ellipse_37" data-name="Ellipse 37" cx="142.728" cy="142.728" rx="142.728" ry="142.728" transform="translate(639.663 110.891)" fill="#090928"/>
      <path id="Path_378" data-name="Path 378" d="M1088.96,615.988s-36.121,142.179-112.517,170.029-264.925,53.066-264.925,53.066-50.943,12.955-55.884,7.136c-5.49-6.5,44.465-34.419,44.465-34.419s-54.273,28.893-61.354,21.281c-10.522-11.254,54.2-45.563,54.2-45.563S640.337,808.1,637.593,800.8c-4.1-10.979,66.076-47.576,77.494-51.84s218.19-65.051,218.19-65.051l31.565-93.761Z" transform="translate(-219.834 -298.287)" fill="#f4f4f4"/>
      <line id="Line_77" data-name="Line 77" x1="72.132" y1="146.003" transform="translate(938.588 549.357)" fill="none" stroke="#80818e" stroke-miterlimit="10" stroke-width="3"/>
      <path id="Path_379" data-name="Path 379" d="M832.664,556.2l-51.4,157.293L694.84,741" transform="translate(-68.608 -328.09)" fill="none" stroke="#80818e" stroke-miterlimit="10" stroke-width="3"/>
      <path id="Path_380" data-name="Path 380" d="M782.857,498.73,729.48,595.071l-11.29-34.913a218.93,218.93,0,0,1,23.788-32.224C757.587,509.874,782.857,498.73,782.857,498.73Z" transform="translate(-61.527 -374.151)" fill="#f4f4f4"/>
      <path id="Path_381" data-name="Path 381" d="M796.08,542.79Z" transform="translate(-217.277 -337.589)" fill="#fff"/>
      <path id="Path_382" data-name="Path 382" d="M852.011,796.428v3.129a3.786,3.786,0,0,1-.659,2.909,1.372,1.372,0,0,1-1.939,0,3.861,3.861,0,0,1-.659-2.91v-3.129a1.629,1.629,0,0,1,3.257,0Z" transform="translate(-369.55 -128.46)" fill="#fff"/>
      <g id="Group_316" data-name="Group 316" transform="translate(0 14.946)" clip-path="url(#clip-path)">
        <g id="Group_321" data-name="Group 321" transform="translate(15.417 81.028)">
          <path id="Path_383" data-name="Path 383" d="M1096.813,731.825c-2.63-3.156,7.377-5.694,5.26,1.144-3,10.008-27.617,2.354-33.535.263-31.457-11.086-46.634-39.821-57.128-69.5-11.428-32.312-17.964-66.623-33.758-97.318a134.9,134.9,0,0,0-112.021-73.448c-16.807-1.013-32.115,2.17-48.422,5.524-2.63.552-4.761-3.38-1.973-4.669,21.463-9.955,48.659-9.324,71.3-4.458A144.184,144.184,0,0,1,951.678,522.3c44.858,39.861,49.132,101.854,70.766,154.3,6.8,16.491,16.018,32.351,30.865,42.82a73.781,73.781,0,0,0,21.449,10.442,69.331,69.331,0,0,0,13.4,2.63c1.315.131,2.735.263,4.089.289a16.377,16.377,0,0,0,4.6-.171c1.933-.894,2.091-1.315.486-1.026a.34.34,0,0,1-.578.237Z" transform="translate(-650.107 -392.036)" fill="#efb83c"/>
          <path id="Path_384" data-name="Path 384" d="M1172.145,864.758a3.8,3.8,0,0,1,2.946,5.852c-2.788,4.906-12.283,1.447-16.123.276-16.57-5.05-30.405-16.136-42.386-28.3-25.566-25.947-45.292-57.128-58.943-90.821-13.9-34.193-22.633-70.45-39.611-103.341a172.684,172.684,0,0,0-71.2-72.594,274.353,274.353,0,0,0-53.59-21.949c-18.332-5.51-37.23-8.351-55.616-13.441-3.024-.842-2.538-5.852.763-5.629,15.439.986,31.22,4.984,46.147,8.9A310.044,310.044,0,0,1,927.3,558.181c27.5,11.744,53.3,28.327,72.87,51.2,44.082,51.539,48.764,123.988,83.194,181.05a264.045,264.045,0,0,0,36.442,47.423,140.715,140.715,0,0,0,23.185,19.726A80.1,80.1,0,0,0,1155,864.153a61.343,61.343,0,0,0,7.259,2.63q2.012.619,4.064,1.065c2.1.947,3.945.355,5.458-1.749a.75.75,0,0,1,.368-1.315Z" transform="translate(-751.951 -376.638)" fill="#efb83c"/>
          <path id="Path_385" data-name="Path 385" d="M833.751,676.511c13.4,31.155,29.419,60.127,53.617,84.3,25.132,25.119,55.76,42.583,89.769,52.6,37.744,11.126,76.92,16.215,112.9,32.877a268.08,268.08,0,0,1,87.48,65.755c27.209,30.682,49.974,64.822,81.063,91.926,1.618,1.407-.513,4.221-2.315,3-30.353-20.568-51.71-51.289-74.79-79.09-24.435-29.445-52.131-55.024-86.468-72.515-36.994-18.833-77.67-24.238-117.044-35.653-32.878-9.534-62.9-25.526-88.112-48.869-26.71-24.724-49.7-57.641-58.062-93.451-.276-1.157,1.5-2.064,2.025-.855Z" transform="translate(-830.354 -332.158)" fill="#efb83c"/>
          <path id="Path_386" data-name="Path 386" d="M1244.447,1006.412c-17.754-49.618-59.824-91.413-110.469-106.733-30.918-9.351-63.493-9.626-95.45-11.836-29.432-2.065-58.167-6.655-85.481-18.188-27.959-11.836-56-29.8-75.474-53.393a1.544,1.544,0,1,1,2.184-2.183c11.086,10.126,21.87,19.963,34.271,28.538a219,219,0,0,0,37.362,20.818c29.7,12.914,61.165,17.1,93.241,19.174,31.563,1.986,63.77,2.775,94.056,12.822a166.207,166.207,0,0,1,63.717,39.045,175.805,175.805,0,0,1,43.819,71.489c.368,1.1-1.315,1.539-1.723.473Z" transform="translate(-877.12 -288.781)" fill="#efb83c"/>
          <path id="Path_387" data-name="Path 387" d="M1008.183,563.293c-20.108-5-39.558-14.769-57.864-24.316a463.611,463.611,0,0,1-55.077-33.732c-33.9-24.237-67.465-53.117-92.057-86.968-1.67-2.3,2.012-5.076,3.945-3.025,14.335,15.36,28.091,31.063,43.4,45.45a473.611,473.611,0,0,0,49.54,40.545,487.9,487.9,0,0,0,53.012,32.877c18.306,9.771,37.638,17.188,56.168,26.46,1.5.75.434,3.038-1.118,2.63Z" transform="translate(-543.026 -414.535)" fill="#efb83c"/>
          <path id="Path_388" data-name="Path 388" d="M1033.526,593.306l-.736.381a.736.736,0,0,1-.855-.119c-1.158-.92-1.171-1.052-1.236-2.525a1.393,1.393,0,0,1,.71-1.236c4.143-1.841,7.891.855,11.678,2.762a183.929,183.929,0,0,1,17.254,10.074,239.966,239.966,0,0,1,29.879,22.883,248.316,248.316,0,0,1,47.344,57.483,243.591,243.591,0,0,1,16.675,33.824c4.971,12.336,10.665,26.3,9.719,39.782-.342,4.866-1.315,10.85-5.089,14.361-4.208,3.945-11.192,3.853-16.544,3.722-15.268-.407-29.655-6.339-43.543-12.138-34.061-14.2-67.543-29.38-100.2-46.581-2.183-1.144-.657-5,1.71-4.05,25.552,10.153,50.592,21.292,75.776,32.312,13.546,5.918,27.078,12.125,41.018,17.1a93.231,93.231,0,0,0,20.384,5.142c7.193.816,15.979,2,18.583-6.352,3.84-12.336-2.472-27.328-6.825-38.8a233.5,233.5,0,0,0-14.466-30.9,243.853,243.853,0,0,0-69.7-78.183q-7.285-5.26-14.953-9.995c-2.841-1.736-5.721-3.406-8.6-5.076-2.248-1.315-5.615-4.182-8.153-4.629a.434.434,0,0,1,.105.789Z" transform="translate(-953.261 -359.5)" fill="#efb83c"/>
        </g>
      </g>
    </g>
    <rect id="Rectangle_364" data-name="Rectangle 364" width="600.074" height="419.525" transform="translate(286.734 1704.523)" fill="#efb83c"/>
    <path id="Path_480" data-name="Path 480" d="M1133.578,703.576H1016.116M1006.54,694h136.613c0,256.005,207.472,463.542,463.557,463.542v136.533H1006.636V694Z" transform="translate(-717.872 390.458)" fill="#f72948"/>
    <path id="Path_483" data-name="Path 483" d="M1403.81,168.565c0,194.316,157.525,351.841,351.841,351.841S2107.49,362.882,2107.49,168.565A350.337,350.337,0,0,0,2064.633.131a2.037,2.037,0,0,0-.149-.281H1446.892a2.066,2.066,0,0,0-.149.281,350.347,350.347,0,0,0-42.932,168.434Z" transform="translate(-1403.768 0.15)" fill="#090928"/>
    <path id="Path_494" data-name="Path 494" d="M1446.875-.15a350.375,350.375,0,0,0-43.045,168.715h0c0,194.317,157.523,351.841,351.84,351.841h0c194.317,0,351.84-157.523,351.84-351.841h0A350.273,350.273,0,0,0,2065.084.861Z" transform="translate(-1403.83 0.15)" fill="none" stroke="#223" stroke-miterlimit="10" stroke-width="0.5"/>
    <line id="Line_116" data-name="Line 116" x1="72.483" y2="415.172" transform="translate(593.246 9.523)" fill="none" stroke="#fff" stroke-miterlimit="10" stroke-width="3"/>
    <line id="Line_117" data-name="Line 117" x1="79.033" y1="461.21" transform="translate(463.664 3.161)" fill="none" stroke="#fff" stroke-miterlimit="10" stroke-width="3"/>
    <line id="Line_118" data-name="Line 118" x1="363.705" y2="464.579" transform="translate(165.161 2.392)" fill="none" stroke="#fff" stroke-miterlimit="10" stroke-width="3"/>
    <line id="Line_119" data-name="Line 119" x1="304.211" y1="520.424" transform="translate(55.982 0.034)" fill="none" stroke="#fff" stroke-miterlimit="10" stroke-width="3"/>
  </g>
</svg>
